<svg xmlns="http://www.w3.org/2000/svg" xmlns:xlink="http://www.w3.org/1999/xlink" version="1.1" viewBox="494.5 0 511 144" height="225" width="800"><svg xml:space="preserve" width="1500" height="144" data-version="2" data-id="lg_FEWvBuUNg7jpgCDQB5" viewBox="0 0 511 144" x="0" y="0"><rect width="100%" height="100%" fill="transparent" /><g transform="translate(164.47 32.9)"><linearGradient id="a" x1="0" x2="10.07" y1="0" y2="0" gradientUnits="objectBoundingBox"><stop offset="0%" stop-color="#f00b51" /><stop offset="100%" stop-color="#730062" /></linearGradient><path fill="url(#a)" d="M317.98 390.91H297.1q-4.28 0-6.5-1.08-2.22-1.08-2.98-3.53-.77-2.45-.77-6.52v-37.27q0-4.15.77-6.58.76-2.42 2.98-3.48 2.22-1.06 6.5-1.06h19.51q.99 0 1.49.33 1.08.75 2.24 1.79 1.16 1.03 2.45 2.49.42.54.42.87 0 .37-.42.83-1.29 1.45-2.45 2.49-1.16 1.04-2.24 1.78-.58.33-1.49.33h-11.63q-2.73 0-3.73 1.17-1 1.16-1 3.98v8.05h14.9q1 0 1.5.34 1.08.74 2.24 1.78 1.16 1.04 2.45 2.49.41.54.41.87 0 .38-.41.83-1.29 1.45-2.45 2.49-1.16 1.04-2.24 1.79-.58.33-1.5.33h-14.9v8.38q0 2.78 1 3.99 1 1.2 3.73 1.2h13q.99 0 1.49.33 1.08.75 2.24 1.79 1.16 1.03 2.45 2.49.41.54.41.87 0 .37-.41.83-1.29 1.45-2.45 2.49-1.16 1.04-2.24 1.78-.58.34-1.49.34" transform="translate(-305.71 -361.15)" /></g><rect width="37.72" height="59.52" x="-18.86" y="-29.76" fill="none" rx="0" ry="0" transform="translate(164.97 33.4)" /><g transform="translate(213.67 32.18)"><linearGradient id="b" x1="-.82" x2="7.27" y1="0" y2="0" gradientUnits="objectBoundingBox"><stop offset="0%" stop-color="#f00b51" /><stop offset="100%" stop-color="#730062" /></linearGradient><path fill="url(#b)" d="M354.96 367.62q-6.35 3.49-8.95 7.85-2.59 4.35-2.59 10.95v2.29q0 1.24-.5 1.72t-1.7.48h-8.64q-1.16 0-1.68-.48-.51-.48-.51-1.72v-2.29q0-6.18 1.36-10.48 1.37-4.29 4.55-7.61 3.17-3.32 8.65-6.52-6.22-3.57-9.77-8.61-3.55-5.04-3.55-11.14v-4.03q0-1.2.42-1.83 1.86-2.74 5.22-5.77.63-.49 1.13-.49.49 0 1.03.49 1.83 1.58 3.07 3.01 1.25 1.44 2.16 2.76.42.67.42 1.83v4.03q0 3.4 2.76 7.18 2.76 3.77 7.57 6.26 4.78-2.45 6.85-5.89 2.08-3.45 2.08-7.55v-4.03q0-1.2.41-1.83 1.79-2.69 5.06-5.77.63-.49 1.04-.49.5 0 1.04.49 1.74 1.58 2.97 3.01 1.22 1.44 2.09 2.76.42.67.42 1.83v4.03q0 6.84-3.34 11.53-3.34 4.69-8.53 7.64 4.9 2.91 7.97 6.25 3.07 3.34 4.52 7.88 1.45 4.55 1.45 11.06v2.29q0 1.24-.52 1.72-.51.48-1.76.48h-8.84q-1.25 0-1.76-.48-.52-.48-.52-1.72v-2.29q0-4.44-.81-7.72-.81-3.28-3.2-5.91-2.38-2.64-7.07-5.17" transform="translate(-354.92 -360.43)" /></g><rect width="49.05" height="60.97" x="-24.52" y="-30.48" fill="none" rx="0" ry="0" transform="translate(214.17 32.68)" /><g transform="translate(274.41 32.92)"><linearGradient id="c" x1="-1.58" x2="5.33" y1="0" y2="0" gradientUnits="objectBoundingBox"><stop offset="0%" stop-color="#f00b51" /><stop offset="100%" stop-color="#730062" /></linearGradient><path fill="url(#c)" d="M415.34 391.94q-8.63 0-15.02-3.32-6.39-3.32-9.9-10-3.51-6.68-3.51-16.68 0-15.9 7.76-23.72 7.77-7.83 21.63-7.83 12.99 0 20.54 7.66 7.56 7.66 7.56 22.68 0 10.63-3.53 17.54-3.53 6.91-10.05 10.29-6.51 3.38-15.48 3.38m.25-11.2q7.47 0 11.08-5.36 3.62-5.35 3.62-13.9 0-9.92-3.41-14.9-3.4-4.98-10.96-4.98-14.9 0-14.9 19.63 0 8.76 3.6 14.13 3.59 5.38 10.97 5.38" transform="translate(-415.65 -361.17)" /></g><rect width="57.49" height="61.55" x="-28.75" y="-30.77" fill="none" rx="0" ry="0" transform="translate(274.91 33.42)" /><g transform="translate(71.36 68.28)scale(4.0618)"><linearGradient id="d" x1="0" x2="1" y1="0" y2="0" gradientUnits="objectBoundingBox"><stop offset="0%" stop-color="#f00b51" /><stop offset="100%" stop-color="#730062" /></linearGradient><path fill="url(#d)" d="M9.38 8.68h13.95v13.94L32 31.29V0H.71z" transform="translate(-16.36 -15.64)" /></g><g transform="translate(68.47 71.17)scale(4.0618)"><linearGradient id="e" x1="0" x2="1" y1="0" y2="0" gradientUnits="objectBoundingBox"><stop offset="0%" stop-color="#f00b51" /><stop offset="100%" stop-color="#730062" /></linearGradient><path fill="url(#e)" d="M22.62 23.33H8.68V9.38L0 .71V32h31.29z" transform="translate(-15.64 -16.36)" /></g><g transform="translate(166 110.58)"><linearGradient id="f" x1="0" x2="8.51" y1="0" y2="0" gradientUnits="objectBoundingBox"><stop offset="0%" stop-color="#ffa62e" /><stop offset="100%" stop-color="#f71b3d" /></linearGradient><path fill="url(#f)" d="M328.19 469.55h-.85l-28.39-32.38-2.64-3.4.43 8.24v26.35h-10.46V408.1h.94l27.96 32.64 2.98 3.86-.43-8.11v-27.37h10.46z" transform="translate(-307.24 -438.82)" /></g><rect width="41.91" height="61.45" x="-20.95" y="-30.73" fill="none" rx="0" ry="0" transform="translate(166.5 111.08)" /><g transform="translate(216.23 110.5)"><linearGradient id="g" x1="-1.27" x2="9.8" y1="0" y2="0" gradientUnits="objectBoundingBox"><stop offset="0%" stop-color="#ffa62e" /><stop offset="100%" stop-color="#f71b3d" /></linearGradient><path fill="url(#g)" d="M373.79 468.36h-32.64v-59.24h30.94v9.26h-20.31v13.86h16.15v9.01h-16.15v17.51h22.01z" transform="translate(-357.47 -438.74)" /></g><rect width="32.64" height="59.24" x="-16.32" y="-29.62" fill="none" rx="0" ry="0" transform="translate(216.73 111)" /><g transform="translate(257.75 110.5)"><linearGradient id="h" x1="-2.18" x2="8.43" y1="0" y2="0" gradientUnits="objectBoundingBox"><stop offset="0%" stop-color="#ffa62e" /><stop offset="100%" stop-color="#f71b3d" /></linearGradient><path fill="url(#h)" d="M404.48 468.36h-10.97v-49.64h-13.68v-9.6h38.33v9.6h-13.68z" transform="translate(-399 -438.74)" /></g><rect width="38.33" height="59.24" x="-19.16" y="-29.62" fill="none" rx="0" ry="0" transform="translate(258.25 111)" /><g transform="translate(313.94 110.56)"><linearGradient id="i" x1="-2.07" x2="4.48" y1="0" y2="0" gradientUnits="objectBoundingBox"><stop offset="0%" stop-color="#ffa62e" /><stop offset="100%" stop-color="#f71b3d" /></linearGradient><path fill="url(#i)" d="M470.44 468.49h-1.36l-13.9-34-13.64 33.91h-1.45l-19.8-59.28h11.73l10.32 34.38 12.37-34.38h1.45l12.53 34.25 9.74-34.25h11.64z" transform="translate(-455.18 -438.8)" /></g><rect width="69.78" height="59.37" x="-34.89" y="-29.68" fill="none" rx="0" ry="0" transform="translate(314.44 111.06)" /><g transform="translate(375.95 110.5)"><linearGradient id="j" x1="-3.74" x2="4.46" y1="0" y2="0" gradientUnits="objectBoundingBox"><stop offset="0%" stop-color="#ffa62e" /><stop offset="100%" stop-color="#f71b3d" /></linearGradient><path fill="url(#j)" d="M517.27 469.38q-8.03 0-13.53-3.8-5.51-3.81-8.36-10.69-2.84-6.89-2.84-16.19 0-9.23 2.8-16.11 2.81-6.89 8.27-10.69 5.46-3.8 13.41-3.8 8.28 0 13.79 3.86 5.5 3.87 8.26 10.76 2.77 6.88 2.77 15.98 0 9.3-2.85 16.19-2.85 6.88-8.33 10.69-5.48 3.8-13.39 3.8m0-9.09q5.57 0 9.42-5.38 3.84-5.38 3.84-16.47 0-10.67-3.59-16.09-3.59-5.41-9.92-5.41-6.17 0-9.63 5.44-3.46 5.44-3.46 16.15 0 11.09 3.67 16.42 3.68 5.34 9.67 5.34" transform="translate(-517.19 -438.74)" /></g><rect width="49.3" height="61.28" x="-24.65" y="-30.64" fill="none" rx="0" ry="0" transform="translate(376.45 111)" /><g transform="translate(429.58 110.5)"><linearGradient id="k" x1="-5.46" x2="4.13" y1="0" y2="0" gradientUnits="objectBoundingBox"><stop offset="0%" stop-color="#ffa62e" /><stop offset="100%" stop-color="#f71b3d" /></linearGradient><path fill="url(#k)" d="m575.11 447.79 15.3 20.57h-13.17l-15.22-21.42v21.42h-10.79v-59.24h16.49q6.03 0 10.79 1.76 4.76 1.76 7.53 5.89 2.76 4.12 2.76 11.22 0 3.86-1.3 7.96-1.29 4.11-4.29 7.34-3 3.23-8.1 4.5m-13.09-30.17v23.97h4.51q3.74 0 6.27-1.77 2.53-1.76 3.82-4.63 1.3-2.87 1.3-6.18 0-5.74-2.64-8.57-2.63-2.82-9.01-2.82z" transform="translate(-570.82 -438.74)" /></g><rect width="39.18" height="59.24" x="-19.59" y="-29.62" fill="none" rx="0" ry="0" transform="translate(430.08 111)" /><g transform="translate(480.28 110.5)"><linearGradient id="l" x1="-6.32" x2="3.05" y1="0" y2="0" gradientUnits="objectBoundingBox"><stop offset="0%" stop-color="#ffa62e" /><stop offset="100%" stop-color="#f71b3d" /></linearGradient><path fill="url(#l)" d="M610.56 468.36h-10.8v-59.24h10.8v29.49l18.87-29.49h12.49l-20.18 29.41 21.54 29.83h-13.6l-19.12-28.43z" transform="translate(-621.52 -438.74)" /></g><rect width="43.52" height="59.24" x="-21.76" y="-29.62" fill="none" rx="0" ry="0" transform="translate(480.78 111)" /><path stroke="#000" stroke-width="5" d="m143.696 74.255 359.878-3.092" /></svg></svg>